<svg width="201" height="88" fill="none" xmlns="http://www.w3.org/2000/svg"><path d="M48.112 27.592l1.648.5c-.11.464-.285.852-.523 1.163a2.267 2.267 0 01-.886.704c-.353.158-.802.237-1.348.237-.661 0-1.202-.096-1.622-.289-.419-.193-.78-.532-1.085-1.018-.304-.486-.456-1.107-.456-1.866 0-1.01.267-1.786.803-2.33.536-.543 1.294-.814 2.273-.814.768 0 1.37.155 1.809.467.438.31.764.789.977 1.433l-1.66.371a1.46 1.46 0 00-.183-.409 1.105 1.105 0 00-.386-.333 1.108 1.108 0 00-.511-.116c-.425 0-.752.172-.98.516-.172.255-.257.657-.257 1.203 0 .676.102 1.14.307 1.392.204.251.493.376.864.376.36 0 .631-.1.816-.303.183-.203.317-.498.4-.884zm2.853-3.61h5.04v1.305H52.85v.971h2.927v1.246H52.85v1.205h3.247v1.383h-5.132v-6.11zm6.021 0h5.718v1.508h-1.918v4.601h-1.882v-4.6h-1.918v-1.509zm8.756 2.354h1.004c.922 0 1.606.163 2.051.49.446.326.67.833.67 1.523 0 .564-.205.995-.613 1.293-.409.3-.995.448-1.76.448h-3.229v-6.108h1.877v2.354zm0 2.441h.963c.59 0 .884-.213.884-.642 0-.375-.294-.562-.883-.562h-.964v1.204zm7.807-4.795h2.473l.955 3.718.947-3.718h2.472v6.11h-1.54v-4.66l-1.187 4.66h-1.394l-1.185-4.66v4.66h-1.54v-6.11h-.001zm12.081 5.102h-2.135l-.297 1.007h-1.92l2.287-6.109h2.052l2.287 6.11h-1.969l-.305-1.008zm-.39-1.323l-.672-2.195-.665 2.195h1.337zm8.384-2.279H90.68v4.608h-1.877v-6.108h4.82v1.5zm4.896 3.602h-2.134l-.298 1.007h-1.92l2.288-6.109h2.052l2.286 6.11h-1.97l-.303-1.008zm-.389-1.323l-.673-2.195-.664 2.195h1.337zm7.376-.99c.731.197 1.096.658 1.096 1.383a1.83 1.83 0 01-.687 1.469c-.459.382-1.106.572-1.94.572-1.43 0-2.317-.6-2.662-1.804l1.776-.133c.1.425.384.637.852.637.26 0 .455-.065.589-.195.136-.13.204-.313.204-.546a.674.674 0 00-.254-.549c-.17-.14-.398-.21-.693-.21h-.512v-1.092h.402c.242 0 .43-.063.567-.19.139-.126.207-.301.207-.527 0-.33-.207-.496-.62-.496-.424 0-.673.19-.742.57l-1.682-.195c.274-1.058 1.094-1.588 2.459-1.588.756 0 1.347.147 1.776.442.43.294.644.69.644 1.187 0 .602-.258 1.024-.78 1.265zm8.158-2.789v6.11h-1.769v-3.356l-2.277 3.355h-1.773v-6.109h1.77v3.38l2.291-3.38h1.758zm1.565 0h1.881v2.137h2.054v-2.137h1.89v6.11h-1.89V27.62h-2.054v2.471h-1.881v-6.109zm7.129 3.06c0-.998.276-1.775.83-2.33.555-.555 1.326-.833 2.314-.833 1.013 0 1.794.273 2.341.82.548.545.822 1.31.822 2.293 0 .714-.119 1.3-.359 1.756a2.564 2.564 0 01-1.04 1.067c-.453.254-1.017.381-1.691.381-.687 0-1.255-.11-1.705-.329-.451-.22-.815-.566-1.094-1.042-.279-.475-.418-1.07-.418-1.783zm1.882.008c0 .616.113 1.06.341 1.329.23.27.541.404.932.404.405 0 .718-.132.939-.396.222-.264.331-.738.331-1.42 0-.576-.113-.996-.346-1.261-.231-.266-.545-.398-.941-.398-.379 0-.684.134-.914.404-.229.27-.342.716-.342 1.338zm5.755-3.068h3.521c.587 0 1.038.146 1.352.438.315.292.472.653.472 1.083 0 .361-.111.671-.336.93-.149.172-.368.308-.656.408.438.107.759.287.965.545.206.256.309.58.309.968 0 .316-.074.601-.218.854a1.646 1.646 0 01-.605.6c-.157.092-.395.158-.712.2a8.195 8.195 0 01-.844.084h-3.246v-6.11h-.002zm1.898 2.396h.82c.292 0 .497-.05.611-.152.116-.101.173-.248.173-.44a.521.521 0 00-.173-.417c-.113-.1-.314-.15-.599-.15h-.831l-.001 1.159zm0 2.4h.958c.325 0 .553-.058.685-.173a.582.582 0 00.201-.465.538.538 0 00-.199-.435c-.131-.11-.361-.165-.691-.165h-.955v1.237h.001zm8.792-2.837h1.297l-1.149 1.926 1.149 1.93h-1.297l-1.325-1.928 1.325-1.928zm2.151 0h1.3l-1.151 1.928 1.151 1.928h-1.3l-1.322-1.93 1.322-1.926zm1.862-1.959h2.045l.838 2.517.833-2.517h1.914l-1.998 4.717c-.163.38-.307.664-.426.851a1.357 1.357 0 01-.543.463c-.238.12-.568.18-.987.18-.221 0-.6-.03-1.141-.094v-1.263c.319.033.551.05.698.05.433 0 .697-.163.791-.488l-2.024-4.416zm15.644 7.438h-1.517v-1.33h-3.886v1.33h-1.512v-2.738h.627c.352-.986.526-2.099.526-3.337v-1.363h5.103v4.7h.658l.001 2.738zm-2.536-2.738v-3.2h-1.513v.08c0 .843-.142 1.884-.428 3.12h1.941zm3.334-1.64c0-.998.277-1.775.829-2.33.553-.555 1.325-.833 2.312-.833 1.013 0 1.794.273 2.341.82.548.545.824 1.31.824 2.293 0 .714-.12 1.3-.36 1.756a2.56 2.56 0 01-1.038 1.067c-.452.254-1.016.381-1.691.381-.687 0-1.256-.11-1.706-.329a2.563 2.563 0 01-1.093-1.042c-.28-.475-.418-1.07-.418-1.783zm1.88.008c0 .616.114 1.06.344 1.329.227.27.538.404.931.404.403 0 .716-.132.938-.396.222-.264.331-.738.331-1.42 0-.576-.114-.996-.347-1.261-.231-.266-.545-.398-.941-.398-.379 0-.682.134-.913.404-.228.27-.343.716-.343 1.338zm5.725-3.068h2.474l.955 3.718.948-3.718h2.471v6.11h-1.54v-4.66l-1.186 4.66h-1.394l-1.186-4.66v4.66h-1.54l-.002-6.11zm12.079 5.102h-2.136l-.298 1.007h-1.92l2.287-6.109h2.052l2.287 6.11h-1.97l-.302-1.008zm-.392-1.323l-.673-2.195-.665 2.195h1.338zm5.919.106l-1.322 1.93h-1.3l1.151-1.928-1.151-1.928h1.3l1.322 1.926zm2.154.002l-1.324 1.928h-1.296l1.149-1.93-1.149-1.926h1.296l1.324 1.928zM19.93 22C8.955 22 0 30.985 0 42s8.954 20 19.93 20c10.977 0 19.93-8.985 19.93-20s-8.954-20-19.93-20zm11.413 28.794c-.94 1.297-2.009 2.19-3.218 2.665-1.2.48-2.916.714-5.14.714H10.303V29.23h20.09v4.526H15.727v4.235h7.257c2.01 0 3.666.246 4.985.737 1.32.488 2.447 1.399 3.382 2.725.935 1.323 1.403 2.877 1.403 4.653 0 1.825-.469 3.387-1.412 4.688z" fill="#999"/><path d="M25.781 43.371c-.858-.555-2.313-.835-4.361-.852h-5.692v7.132h5.279c.142 0 .277 0 .413-.004 1.47-.01 2.515-.092 3.14-.24.688-.17 1.284-.544 1.789-1.132.506-.59.762-1.313.762-2.17 0-1.251-.44-2.161-1.33-2.734zm30.857 5.701c-.794.96-1.79 1.443-2.984 1.443h-.149c-1.186-.04-2.192-.57-3.023-1.578-.866-1.04-1.303-2.665-1.303-4.856 0-1.915.414-3.358 1.245-4.332.824-.964 1.85-1.448 3.082-1.463h.055c1.207 0 2.218.498 3.038 1.487.82.994 1.233 2.513 1.233 4.566 0 2.19-.402 3.774-1.194 4.733zm3.914-12.206c-1.673-1.97-4.51-2.879-7.047-2.762-2.042.09-3.89.847-4.768 2.249v-1.708h-4.805v26.99h5.146v-8.961c1.149 1.235 2.744 1.88 4.427 2.005 2.552.19 5.314-.813 7.032-2.777 1.589-1.806 2.38-4.342 2.38-7.602 0-3.176-.826-5.623-2.365-7.434zm7.276-2.219h4.948v12.27l7.92-12.27h5.057v19.527h-4.95V41.69l-8.027 12.483h-4.948V34.647zm41.131 5.774l-5.081.917c-.165-1.017-.556-1.785-1.161-2.297-.611-.517-1.389-.774-2.357-.774-1.286 0-2.306.447-3.07 1.333-.762.89-1.143 2.379-1.143 4.463 0 2.313.386 3.951 1.163 4.909.774.956 1.816 1.431 3.123 1.431.98 0 1.777-.276 2.402-.835.625-.558 1.061-1.52 1.32-2.876l5.064.862c-.532 2.33-1.543 4.097-3.031 5.281-1.487 1.192-3.487 1.784-5.995 1.784-2.845 0-5.116-.898-6.805-2.7-1.697-1.804-2.538-4.302-2.538-7.492 0-3.22.848-5.733 2.544-7.525 1.703-1.805 3.998-2.703 6.894-2.703 2.371 0 4.253.515 5.657 1.537 1.394 1.024 2.4 2.588 3.014 4.685zm2.863-5.774h17.61v4.172h-6.23v15.355h-5.15V38.819h-6.23v-4.172zm33.708 14.215c-.907 1.025-2.035 1.543-3.378 1.543h-.013c-1.334-.002-2.465-.52-3.377-1.543-.923-1.033-1.378-2.512-1.378-4.452 0-1.937.454-3.423 1.378-4.454.912-1.026 2.043-1.541 3.377-1.541h.013c1.343 0 2.471.512 3.378 1.54.912 1.033 1.371 2.507 1.371 4.416 0 1.962-.459 3.458-1.371 4.491zm3.84-11.78c-1.88-1.92-4.293-2.883-7.231-2.883h-.006c-1.909 0-3.634.426-5.182 1.276-1.544.84-2.739 2.068-3.586 3.67-.834 1.61-1.265 3.272-1.265 4.984 0 2.247.43 4.152 1.265 5.715.847 1.563 2.08 2.75 3.7 3.56a11.22 11.22 0 005.074 1.213h.03c2.885 0 5.277-.97 7.177-2.914 1.895-1.948 2.844-4.395 2.844-7.344 0-2.933-.935-5.359-2.82-7.277zm8.579-2.435h17.25v19.527h-5.129V38.838h-7.018v8.771c0 2.237-.258 3.8-.772 4.703-.515.9-1.081 1.488-1.707 1.772-.618.281-1.622.425-3.001.425-.821 0-1.907-.111-3.25-.335v-3.8c.119 0 .402.008.863.03.537.038.952.055 1.246.055.695 0 1.128-.224 1.283-.69.162-.46.235-1.737.235-3.835V34.647zm36.684 15.518c-.421.49-1.382.738-2.885.738h-4.804v-4.969h3.361c.283 0 .548.006.802.012 1.429.048 2.454.224 3.066.522.729.358 1.097 1.009 1.097 1.952a2.56 2.56 0 01-.637 1.745zm4.868-5.067c-.72-.974-1.622-1.606-2.709-1.899-1.086-.297-2.648-.441-4.673-.441h-5.173v-8.111h-5.149v19.527h11.055c2.576 0 4.51-.474 5.801-1.42 1.286-.95 1.929-2.373 1.929-4.257 0-1.291-.361-2.425-1.081-3.4z" fill="#999"/></svg>