<svg width="163" height="40" fill="none" xmlns="http://www.w3.org/2000/svg"><path d="M33.92 27.642h-2.124V1.1a1.082 1.082 0 00-1.08-1.082H11.055c-.593 0-1.15 0-1.688-.015a5.067 5.067 0 00-1.442.162 1.948 1.948 0 00-.999.617c-.242.295-.364.746-.366 1.354v2.851c0 .964-.015 2.003-.045 3.118-.03 1.117-.097 6.709-.198 7.876a37.708 37.708 0 01-.472 3.47 22.28 22.28 0 01-.843 3.264c-.334.989-.78 1.936-1.329 2.823a7.922 7.922 0 01-1.473 1.76 1.594 1.594 0 01-.833.386c-.311.04-.611.147-.878.314-.326.218-.49.679-.488 1.384v9.538A1.081 1.081 0 001.08 40h6.34a1.08 1.08 0 001.08-1.081v-4.396h17.94v4.39a1.081 1.081 0 001.08 1.081h6.397A1.08 1.08 0 0035 38.913V28.722a1.081 1.081 0 00-1.082-1.08h.002zm-10.625 0H11.232a12.395 12.395 0 001.559-3.235 28.38 28.38 0 00.974-3.867c.235-1.318.402-2.612.5-3.881.1-1.266.147-6.816.147-7.757V6.99h8.883v20.652zM90.56 15.298l10.932-12.15a1.276 1.276 0 00-.274-1.939 1.34 1.34 0 00-.714-.209h-6.727a1.34 1.34 0 00-1 .45L81.242 14.595V2.292a1.266 1.266 0 00-.385-.914A1.32 1.32 0 0079.924 1h-5.607a1.34 1.34 0 00-.932.378 1.287 1.287 0 00-.385.914v31.416a1.266 1.266 0 00.385.913 1.317 1.317 0 00.932.379h5.613a1.342 1.342 0 00.932-.378 1.287 1.287 0 00.386-.914v-8.752l3.682-3.974 8.252 13.395a1.337 1.337 0 001.13.623h6.369c.235 0 .466-.062.669-.178a1.281 1.281 0 00.65-1.145 1.277 1.277 0 00-.199-.65L90.56 15.307v-.01z" fill="#999"/><path d="M129.345 26.074a1.374 1.374 0 00-1.321-.051 20.32 20.32 0 01-9.168 2.136c-5.989 0-10.35-4.275-10.35-10.167 0-5.985 4.313-10.166 10.487-10.166 2.994 0 5.867.714 8.801 2.18a1.38 1.38 0 001.32-.047 1.33 1.33 0 00.475-.479c.114-.197.174-.419.175-.645V3.604c0-.235-.063-.465-.184-.667a1.346 1.346 0 00-.502-.485C128.04 1.878 124.229 0 118.764 0 108.062 0 100 7.738 100 18s8.011 18 18.636 18c6.156 0 10.234-2.16 10.679-2.407.209-.116.382-.284.502-.486a1.3 1.3 0 00.183-.668v-5.237a1.302 1.302 0 00-.647-1.128h-.008zM40.337.489h5.596a1.335 1.335 0 011.336 1.33V19L65.528.402A1.33 1.33 0 0166.484 0h.18a1.342 1.342 0 011.235.823c.067.162.101.335.101.51v32.852a1.322 1.322 0 01-.825 1.23 1.341 1.341 0 01-.512.1h-5.6a1.34 1.34 0 01-.945-.39 1.327 1.327 0 01-.391-.94V16.962L41.429 35.607a1.338 1.338 0 01-.956.393h-.136a1.341 1.341 0 01-1.236-.821 1.322 1.322 0 01-.101-.51V1.82A1.336 1.336 0 0140.337.49zm95 0h5.599a1.337 1.337 0 011.337 1.33V19L160.526.402a1.335 1.335 0 01.956-.402h.181a1.34 1.34 0 011.236.823c.067.162.101.335.101.51v32.852a1.33 1.33 0 01-1.337 1.33h-5.601a1.34 1.34 0 01-1.234-.821 1.328 1.328 0 01-.101-.51V16.962l-18.298 18.645a1.333 1.333 0 01-.956.393h-.136A1.337 1.337 0 01134 34.67V1.82a1.334 1.334 0 011.337-1.331z" fill="#999"/></svg>