<svg width="350" height="117" fill="none" xmlns="http://www.w3.org/2000/svg"><path d="M266 17.2v17.1l-2.3-2.1c-3.4-3.2-9.1-5.2-15-5.2-15 0-26 10.2-28.9 26.7-3.3 19.7 10.3 38.1 28.2 38.3 6.4 0 11.5-1.7 15.4-5.1l3.4-3 1.8 3.1c1.8 2.9 2 3 9.6 3h7.8V0h-20v17.2zm-6.1 29.6c6.9 3.7 9.2 13.7 4.8 20.3-5.9 8.9-17.2 8.6-22.7-.4S243.2 45 253.5 45c1.7 0 4.6.8 6.4 1.8zM21.1 26.2C-.3 32.3-7.1 63.9 9.5 80.5c5.6 5.5 11.6 7.9 20 7.9 7.3 0 11.7-1.6 15.6-5.5C47 81 47 81 47 85.2c0 5.4-2.7 10-7.3 12.1-5.2 2.5-14.9 2.2-21.9-.7L12 94.2l-4 7c-2.2 3.8-4 7.3-4 7.8 0 1.4 11.5 5.9 18.4 7.1 8 1.4 18.1.7 24.8-1.6 6.5-2.3 14-9.2 16.9-15.7 2.4-5.2 2.4-6 2.7-38.6l.3-33.2h-8c-7.8 0-8 .1-9.7 2.9l-1.7 2.9-3.7-2.9c-5.9-4.7-14.5-6.1-22.9-3.7zm20.5 19.3c3.7 2.4 5.6 6 5.6 10.8C47.2 65 42.3 70 33.7 70 19 70 16.3 47.6 30.5 43.7c3-.8 8.4 0 11.1 1.8zm55.7-19.1c-9.2 3-15.7 8.9-19.9 18.1-5.9 12.7-2.7 29.4 7.3 38.6 7.2 6.6 12.2 8.4 23.3 8.4 7.9 0 10.3-.4 14.1-2.3 7.2-3.5 12.5-8.7 15.6-15 2.5-5.1 2.8-6.8 2.8-15.7 0-8.2-.4-10.9-2.2-14.7-2.8-6.1-9.5-12.7-15.8-15.7-6.1-3-18.8-3.8-25.2-1.7zm16.8 19.1c9.3 4.8 9.3 21.2 0 26-5 2.5-10.5 2-14.6-1.6-6.7-6-7-15.6-.5-22.2 3.2-3.1 4.4-3.7 7.9-3.7 2.3 0 5.5.7 7.2 1.5z" fill="#999"/><path d="M170.1 26.9C156.5 32 149 43.2 149 58.5c0 13.7 6.4 24.6 17.8 30.2 5 2.5 6.8 2.8 15.2 2.8 8.4 0 10.2-.3 15.2-2.8 19.9-9.8 24.5-36.8 9.2-53.7-8.1-8.9-24.3-12.5-36.3-8.1zM191 47.6c8.7 8.7 3.2 25.4-8.3 25.4-5.4 0-8.6-1.7-11.4-5.9-4.6-6.8-2.2-18.2 4.7-21.9 4.2-2.2 11.7-1 15 2.4zm121.4-21.7c-10.7 2.8-16.4 9.9-16.4 20.3 0 12 5.8 17.2 22.6 20.3 9.8 1.9 11.6 2.8 11.2 5.8-.6 4.3-13 4.6-23.1.6-2.7-1.1-5.1-1.8-5.2-1.7-.2.2-2 3.4-4.1 7.2-3.6 6.7-3.7 6.9-1.8 8.3 6.6 4.9 31.1 6.7 40.6 3 15.4-6 18.7-27.4 5.3-35.3-2.5-1.4-8.5-3.4-14.2-4.5-10.5-2.1-11.7-2.7-11.1-5.5.7-4 8.5-4.1 22.6-.3.8.3 3-2.5 5.3-6.7l4-7.2-6.3-2.2c-6.8-2.3-23.8-3.6-29.4-2.1z" fill="#999"/></svg>