<svg width="21" height="64" fill="none" xmlns="http://www.w3.org/2000/svg"><path fill-rule="evenodd" clip-rule="evenodd" d="M11.387 25.938c-.901-1.178-2.262-1.999-4.285-1.999-4.1 0-7.102 3.366-7.102 7.657 0 4.295 3.002 7.65 7.102 7.65 1.97 0 3.317-.77 4.224-1.915v.95c0 2.401-1.878 3.48-3.858 3.48-1.663 0-3.16-.412-4.55-1.3L.83 44.077C2.658 45.351 5.26 46 7.813 46c5.012 0 8.308-2.974 8.308-7.945V24.364h-3.816l-.918 1.573zm-3.124 8.904c-1.91 0-3.218-1.408-3.218-3.247 0-1.844 1.308-3.232 3.218-3.232 1.843-.003 3.125 1.367 3.125 3.232 0 1.875-1.282 3.247-3.125 3.247zm17.61-10.903c-4.629 0-8.055 3.432-8.055 8.068 0 4.627 3.426 8.054 8.055 8.054 4.644 0 8.066-3.427 8.066-8.054 0-4.636-3.422-8.068-8.066-8.068zm0 11.572c-1.846 0-3.208-1.446-3.208-3.506 0-2.062 1.37-3.512 3.208-3.512 1.862 0 3.222 1.45 3.222 3.513 0 2.054-1.36 3.505-3.222 3.505zm17.821-11.572c-4.629 0-8.058 3.432-8.058 8.068 0 4.627 3.43 8.054 8.058 8.054 4.647 0 8.064-3.427 8.064-8.054 0-4.636-3.423-8.068-8.064-8.068zm0 11.572c-1.846 0-3.205-1.446-3.205-3.504 0-2.065 1.36-3.513 3.205-3.513 1.864 0 3.218 1.448 3.218 3.511 0 2.06-1.353 3.506-3.218 3.506zm20.194-9.304c-.919-1.079-2.262-1.838-4.205-1.838-4.077 0-7.077 3.457-7.077 7.831 0 4.404 3 7.86 7.068 7.86 2.058 0 3.452-.828 4.364-2.001l.946 1.61h3.743V18h-4.84v8.207zm-3.052 9.425c-1.941 0-3.242-1.47-3.242-3.41 0-1.95 1.301-3.42 3.242-3.42 1.913 0 3.254 1.438 3.254 3.418 0 1.973-1.347 3.412-3.255 3.412zm18.356-5.6l-1.082-.172c-1.435-.238-2.367-.393-2.367-1.049 0-.56.48-.939 1.71-.939 1.272.019 2.82.4 4.15.907l1.96-3.543c-2.397-.955-3.916-1.297-6.291-1.297-3.998 0-6.35 1.862-6.35 5.127 0 2.746 1.643 4.28 5.184 4.823l.85.124c1.663.27 2.321.501 2.321 1.095 0 .66-.597.999-2.051.999-1.867 0-3.437-.448-4.82-1.227l-1.982 3.574c1.678 1.142 4.264 1.607 6.776 1.607 4.282 0 6.8-2.014 6.8-5.375 0-2.576-1.656-4.152-4.808-4.654z" fill="#999"/></svg>