<svg width="171" height="32" fill="none" xmlns="http://www.w3.org/2000/svg"><path d="M90.822 26.633V5.367h13.212v4.94h-7.703v16.326h-5.509zm29.834 0v-8.329h-8.184v8.33h-5.509V5.366h5.509v7.936h8.184V5.367h5.509v21.266h-5.509zm37.477 0V10.307h-6.434v-4.94h18.412v4.94h-6.466v16.326h-5.512zm-14.541-.003V14.513l-8.769 12.117h-4.606V5.37h5.509v11.99l8.622-11.99h4.756v21.26h-5.512zm-84.426.003V13.995l-5.5 6.677-5.5-6.677v12.638h-5.51V5.367h5.437l5.572 7.313 5.573-7.313h5.436v21.266h-5.508zm15.966-7.479h5.12l-2.56-6.668-2.56 6.668zm7.991 7.476l-1.153-2.98h-8.564l-1.154 2.98h-5.537l8.472-21.263h5.094l8.475 21.263h-5.633zM0 9.688a9.79 9.79 0 012.8-6.845A9.477 9.477 0 019.535 0H31.55v4.925H9.541a4.673 4.673 0 00-3.309 1.4 4.826 4.826 0 00-1.38 3.363l-.03 8.268a4.853 4.853 0 01-1.259 2.83 4.717 4.717 0 01-2.698 1.461L0 22.382V9.688zM.002 32v-4.924h22.015a4.676 4.676 0 003.31-1.403 4.83 4.83 0 001.38-3.364v-7.845a4.845 4.845 0 011.14-3.1 4.703 4.703 0 012.844-1.614l.865-.132V22.31a9.792 9.792 0 01-2.799 6.847A9.48 9.48 0 0122.02 32H.002z" fill="#fff"/><path d="M18.651 22.4v-6.366l-2.871 3.483-2.868-3.483V22.4H9.109V9.873h3.6l3.07 4.028 3.071-4.028h3.6V22.4h-3.799z" fill="#fff"/></svg>