<svg width="305" height="88" fill="none" xmlns="http://www.w3.org/2000/svg"><g clip-path="url(#clip0)" fill-rule="evenodd" clip-rule="evenodd" fill="#999"><path d="M.137 20.159h5.98v1.054H3.752v6.446h-1.25v-6.446H.137V20.16zm19.607 3.75c0-1.386.38-2.413 1.142-3.082.639-.551 1.414-.827 2.324-.827 1.013 0 1.849.338 2.495 1.013.645.67.965 1.607.965 2.792 0 .966-.143 1.717-.429 2.269-.285.551-.7.979-1.243 1.289a3.605 3.605 0 01-1.78.455c-1.034 0-1.87-.338-2.509-1.007-.645-.668-.965-1.64-.965-2.902zm1.285 0c0 .958.204 1.675.618 2.15a1.99 1.99 0 001.563.718c.626 0 1.142-.241 1.557-.717.414-.483.618-1.207.618-2.192 0-.924-.21-1.627-.625-2.103-.415-.476-.931-.717-1.55-.717-.632 0-1.148.234-1.563.71-.414.483-.618 1.2-.618 2.15zM41.2 30.534V20.16h1.142v.985c.265-.379.57-.668.91-.854.334-.194.748-.29 1.23-.29.633 0 1.19.166 1.673.496.482.331.843.793 1.094 1.393.245.6.367 1.255.367 1.972 0 .765-.136 1.454-.408 2.068-.272.614-.666 1.082-1.182 1.406-.517.324-1.06.49-1.632.49a2.29 2.29 0 01-1.12-.27 2.446 2.446 0 01-.816-.675v3.661H41.2v-.007zm1.135-6.577c0 .959.19 1.668.578 2.13.387.462.85.69 1.393.69.558 0 1.033-.241 1.427-.717.395-.476.592-1.213.592-2.213 0-.952-.19-1.669-.578-2.144-.387-.476-.85-.71-1.386-.71-.53 0-1 .255-1.414.758-.408.51-.612 1.241-.612 2.206zm19.846-3.798h4.26v1.054h-3.003v6.446H62.18v-7.5zm17.466 3.75c0-1.386.38-2.413 1.142-3.082.639-.551 1.414-.827 2.331-.827 1.013 0 1.849.338 2.494 1.013.646.67.965 1.607.965 2.792 0 .966-.142 1.717-.428 2.269-.285.551-.7.979-1.243 1.289a3.605 3.605 0 01-1.781.455c-1.033 0-1.87-.338-2.508-1.007-.652-.668-.972-1.64-.972-2.902zm1.285 0c0 .958.203 1.675.618 2.15a1.99 1.99 0 001.563.718c.626 0 1.142-.241 1.557-.717.414-.483.618-1.207.618-2.192 0-.924-.21-1.627-.625-2.103-.415-.476-.931-.717-1.55-.717-.632 0-1.148.234-1.563.71-.408.483-.618 1.2-.618 2.15zm20.171-3.75h2.882c.707 0 1.237.062 1.583.179.347.117.639.338.891.662.251.324.374.703.374 1.15 0 .36-.075.67-.218.939a1.816 1.816 0 01-.659.668c.346.117.632.338.863.662.231.317.34.703.34 1.145-.048.71-.299 1.24-.748 1.578-.455.345-1.114.517-1.978.517h-3.33v-7.5zm1.251 3.164h1.332c.53 0 .897-.028 1.094-.083a1.14 1.14 0 00.537-.345.896.896 0 00.238-.62c0-.4-.136-.669-.408-.827-.279-.159-.748-.235-1.414-.235h-1.372v2.11h-.007zm0 3.295h1.644c.707 0 1.197-.082 1.462-.248.265-.165.401-.455.414-.869a1.08 1.08 0 00-.231-.668.964.964 0 00-.598-.386c-.245-.055-.639-.083-1.182-.083h-1.516v2.254h.007zm26.417-6.46h1.257v7.501h-1.257v-7.5zm-7 0h1.25v2.937h1.584c1.033 0 1.828.2 2.385.607.558.407.836.965.836 1.682 0 .628-.231 1.159-.7 1.607-.462.448-1.209.668-2.229.668h-3.126v-7.5zm1.257 6.46h1.319c.788 0 1.359-.096 1.692-.296.34-.2.51-.503.51-.924 0-.324-.123-.613-.374-.869-.252-.255-.802-.379-1.665-.379h-1.482v2.468zm27.05-1.385l1.298.172c-.204.765-.578 1.358-1.128 1.779-.551.42-1.258.634-2.114.634-1.081 0-1.93-.338-2.562-1.014-.632-.668-.945-1.62-.945-2.833 0-1.255.319-2.234.958-2.93.626-.696 1.455-1.041 2.474-1.041.986 0 1.788.338 2.413 1.02.625.683.938 1.641.938 2.875 0 .076 0 .186-.007.338h-5.505c.047.82.279 1.455.686 1.889.408.434.925.655 1.543.655.455 0 .85-.124 1.176-.366.326-.248.584-.64.775-1.178zm-4.105-2.041h4.118c-.054-.634-.21-1.103-.475-1.42a1.908 1.908 0 00-1.55-.738c-.578 0-1.06.193-1.448.586-.387.393-.605.917-.645 1.572zm31.929-3.033h1.25v6.46h3.48v-6.46h1.251v6.46h.815v3.164h-1.026v-2.124h-5.77v-7.5zm26.091 5.074l1.298.172c-.204.765-.578 1.358-1.128 1.779-.551.42-1.251.634-2.114.634-1.08 0-1.93-.338-2.562-1.014-.632-.668-.945-1.62-.945-2.833 0-1.255.32-2.234.959-2.93.632-.696 1.461-1.041 2.48-1.041.986 0 1.788.338 2.413 1.02.625.683.938 1.641.938 2.875 0 .076 0 .186-.007.338h-5.505c.048.82.279 1.455.687 1.889.407.434.924.655 1.542.655.456 0 .85-.124 1.176-.366.326-.248.578-.64.768-1.178zm-4.105-2.041h4.119c-.055-.634-.211-1.103-.476-1.42a1.907 1.907 0 00-1.55-.738c-.577 0-1.06.193-1.447.586-.381.393-.598.917-.646 1.572zm20.042-3.033h1.251v3.123h3.48v-3.123h1.25v7.5h-1.25v-3.323h-3.48v3.323h-1.251v-7.5zm20.274 0h5.988v1.054h-2.366v6.446h-1.25v-6.446h-2.365V20.16h-.007zm20.239 10.375V20.16h1.142v.985c.265-.379.571-.668.911-.854.34-.194.748-.29 1.23-.29.632 0 1.189.166 1.672.496.483.331.843.793 1.094 1.393.245.6.367 1.255.367 1.972 0 .765-.136 1.454-.408 2.068-.271.614-.666 1.082-1.182 1.406-.517.324-1.06.49-1.631.49-.422 0-.795-.09-1.122-.27a2.453 2.453 0 01-.815-.675v3.661h-1.258v-.007zm1.135-6.577c0 .959.191 1.668.578 2.13.388.462.85.69 1.393.69.558 0 1.033-.241 1.428-.717.394-.476.591-1.213.591-2.213 0-.952-.19-1.669-.578-2.144-.387-.476-.849-.71-1.386-.71-.53 0-.999.255-1.414.758-.408.51-.612 1.241-.612 2.206zm26.887-3.798h1.257v7.5h-1.257v-7.5zm-7 0h1.257v2.936h1.583c1.034 0 1.829.2 2.386.607.557.407.836.965.836 1.682 0 .628-.231 1.159-.7 1.607-.462.448-1.21.668-2.229.668h-3.127v-7.5h-.006zm1.257 6.46h1.318c.789 0 1.36-.097 1.693-.297.34-.2.509-.503.509-.924 0-.324-.122-.613-.373-.869-.252-.255-.802-.379-1.665-.379h-1.482v2.468zm-58.946 31.332l-11.655.007-2.114-5.329-10.412-.02-2.08 5.356h-22.251l-.448-20.151-6.634 20.185-10.684-.048-6.551-20.213-.123 20.227h-23.413l-1.617-4.047 7.856-5.742-9.304-.049-3.541-9.348-3.344 9.307-9.413.055 7.619 5.722-1.312 4.102H100.45l11.894-24.901h17.622l9.692 20.51.095-20.51h19.179l4.391 13.767 4.186-13.774h19.187l.074 20.344 9.502-20.344h17.718l9.841 20.503-.055 4.391zM80.217 33.071l-.007 24.928 12.88-.048.013-17.773 14.769-.02.02-7.094-27.675.007zM0 33.084h19.295l4.288 13.568 4.241-13.574 19.213-.028-.013 24.936-11.615-.014-.048-19.883-6.64 19.828-10.867.055-6.68-20.02-.096 20.013H0v-24.88zm48.913-.027l29.53-.028.007 5.826-16.454.151-.007 3.51 15.612-.014-.034 5.646-15.55-.014-.034 3.86 16.726-.006-.041 5.963H48.934l-.02-24.894zm187.566 5.605c.027 2.054.027 4.116 0 6.17 2.542-.145 5.43.483 7.646-1.096 1.345-.862 1.352-3.24-.116-3.971-2.27-1.365-5.016-1.034-7.53-1.103zm-12.655 14.905l-1.584 2.785 1.536 1.6c4.377 0 8.747 0 13.124.027-.007-2.406.041-4.82.048-7.225 6.028-.124 12.722.82 17.996-2.868 2.508-1.551 3.514-4.578 3.46-7.439 2.412.07 4.825.049 7.238.062a2990.27 2990.27 0 00-.014 17.463c4.336-.048 8.672-.02 12.995-.02.007-5.826.054-11.645-.02-17.463 3.792.013 7.584-.028 11.37.034 0-2.482-.007-4.957.02-7.432-11.893-.11-23.78-.007-35.674-.055-.007.758-.013 1.517-.013 2.282-2.936-1.565-6.26-2.33-9.57-2.275-6.966.014-13.939-.027-20.905.028.027 6.832.088 13.664-.007 20.496zm-19.091-14.202l-2.814 7.246 5.696-.007-2.882-7.24z"/></g><defs><clipPath id="clip0"><path fill="#fff" transform="translate(0 20)" d="M0 0h290v38H0z"/></clipPath></defs></svg>