<svg width="74" height="88" fill="none" xmlns="http://www.w3.org/2000/svg"><path fill-rule="evenodd" clip-rule="evenodd" d="M36.98 52H0V16h73.168L36.98 52zm-.784-28.8h7.226c6.882 0 10.115 2.317 10.117 7.636 0 4.776-3.326 7.624-8.952 7.624h-2.328l-.027 6.35-10.939-.01-.762-2.752a12.15 12.15 0 01-3.754.573c-1.389 0-2.697-.216-3.847-.606L21.836 44.8l-6.097.02.274-1.402a9.67 9.67 0 00-.047.04 4.47 4.47 0 01-.217.185c-1.63 1.304-3.68 1.907-6.208 1.952l-.653.005c-2.904 0-5.46-.683-7.867-2.045l2.226-4.392C5.657 40.58 7.17 40.9 9.21 40.856c1.057-.02 1.822-.213 2.32-.725.301-.313.459-.702.475-1.118.02-1.14-1.613-1.677-3.612-2.293-1.62-.499-3.46-1.179-4.898-2.227-1.702-1.246-2.512-2.804-2.472-5.002a6.02 6.02 0 011.723-4.179c1.583-1.628 4.137-2.616 7.204-2.616h.016c2.63.003 5.838.744 8.158 1.919l-2.502 4.336c-2.544-1.223-3.823-1.339-5.27-1.416-2.159-.115-3.245.652-3.26 1.48-.022 1.008 2.038 1.92 3.979 2.54 2.94.928 6.675 2.168 7.246 5.762l5.371-14.122h6.24l6.292 16.91-.024-16.905zM24.47 37.248a6.57 6.57 0 002.307.402h-.001c.818 0 1.588-.142 2.263-.382l-2.244-7.184h-.044l-2.281 7.164zm17.787-3.714h1.588c2.116 0 3.804-.7 3.805-2.924 0-2.149-1.689-2.85-3.804-2.85h-1.589v5.774z" fill="#999"/></svg>