<svg width="185" height="88" fill="none" xmlns="http://www.w3.org/2000/svg"><path d="M121.16 29.047a.483.483 0 00-.484.484l.484-.484zM81.038 56.688a.483.483 0 00.484-.484V35.158c0-.268.216-.484.484-.484h5.904a.483.483 0 00.484-.484v-4.66a.483.483 0 00-.484-.483H69.44a.483.483 0 00-.485.484v4.659c0 .268.216.484.484.484h5.93c.267 0 .483.216.483.484v21.046c0 .268.216.484.484.484h4.702z" fill="#999"/><path d="M126.823 41.865c3.811 0 5.773-2.48 5.773-4.806a4.487 4.487 0 00-4.485-4.486c-.519 0-1.046.07-1.478.251 0 0-.044.017-.078.043a.516.516 0 00-.216.398v8.107c0 .277.216.493.484.493zm0 4.252a.483.483 0 00-.484.484v9.603a.483.483 0 01-.484.484h-4.711a.483.483 0 01-.484-.484l.009-26.673c0-.268.216-.484.484-.484h9.542a7.506 7.506 0 017.502 7.502c0 4.979-4.209 9.568-11.374 9.568zm21.391-2.402l.173-.259 9.196-14.114.034-.052a.495.495 0 01.415-.233h3.786c.268 0 .484.216.484.484l.009 26.673a.483.483 0 01-.484.484h-4.711a.483.483 0 01-.484-.484V41.529a.483.483 0 00-.484-.484.483.483 0 00-.38.19l-.121.173-9.853 15.1-.009.017a.478.478 0 01-.372.173h-3.258a.483.483 0 01-.484-.484l-.009-26.673c0-.268.216-.484.484-.484h4.711c.268 0 .484.216.484.484v13.898c0 .268.216.484.484.484a.504.504 0 00.389-.208zm-119.994 0l.172-.259 9.197-14.114.034-.052a.494.494 0 01.415-.233h3.786c.268 0 .484.216.484.484l.009 26.673a.483.483 0 01-.484.484h-4.711a.483.483 0 01-.484-.484V41.529a.483.483 0 00-.864-.294l-.121.173-9.854 15.1-.008.017a.477.477 0 01-.372.173h-3.258a.483.483 0 01-.484-.484l-.009-26.673c0-.268.216-.484.484-.484h4.71c.269 0 .485.216.485.484v13.898c0 .268.216.484.484.484a.517.517 0 00.389-.208zm74.677-9.231a8.427 8.427 0 00-8.427 8.427 8.427 8.427 0 008.427 8.427 8.427 8.427 0 008.427-8.427c.009-4.659-3.768-8.427-8.427-8.427zm14.088 8.427c0 7.779-6.309 14.088-14.088 14.088-7.779 0-14.088-6.31-14.088-14.088 0-7.78 6.31-14.089 14.088-14.089 7.788 0 14.088 6.31 14.088 14.089zM61.366 29.238a.476.476 0 01.38-.181h5.134c.268 0 .484.216.484.484a.532.532 0 01-.103.302L58.419 41.78a.521.521 0 00-.121.32.47.47 0 00.095.286l9.568 13.587a.483.483 0 01-.415.735h-2.87c-1.4-.018-2.688-.51-3.595-1.28a6.323 6.323 0 01-1.288-1.487l-6.189-8.91a.48.48 0 00-.881.267v10.925a.483.483 0 01-.484.484h-4.702a.483.483 0 01-.484-.484V29.55c0-.268.216-.484.484-.484h4.702c.268 0 .484.216.484.484v9.966a.48.48 0 00.882.268L61.02 29.73l.346-.493zm40.106-3.042a.475.475 0 01-.441-.484.4.4 0 01.035-.181l.008-.026C103.235 20.5 108.214 17 114.013 17c.251 0 .502.009.744.017h.034a.489.489 0 01.441.692l-.009.017c-2.169 4.996-7.139 8.488-12.93 8.488-.242 0-.492-.009-.735-.018h-.086zm72.619 2.851a7.5 7.5 0 00-7.502 7.502c0 3.38 2.238 6.24 5.315 7.183h.009c.19.069.328.242.328.458a.406.406 0 01-.052.207l-.095.199-5.471 11.167-.095.19a.483.483 0 00.415.735h1.513c1.391-.017 2.688-.502 3.595-1.28.519-.44.951-.941 1.288-1.486l4.114-7.744.078-.147a.483.483 0 01.916.216v9.957c0 .268.216.484.484.484h4.711a.483.483 0 00.484-.484l-.009-26.673a.483.483 0 00-.484-.484h-9.542zm3.872 12.818c-3.82 0-5.774-2.48-5.774-4.806a4.487 4.487 0 014.486-4.486c.519 0 1.046.07 1.487.251a.494.494 0 01.294.44v8.108a.499.499 0 01-.493.493zM8.22 53.114H5.998a.483.483 0 01-.484-.484v-8.427c0-.268.216-.484.484-.484H8.22c.544 0 1.063.095 1.547.259a4.698 4.698 0 013.146 4.434 4.689 4.689 0 01-4.693 4.702zM5.514 33.658c0-.216.139-.389.329-.458l.017-.009a3.63 3.63 0 011.15-.19 3.556 3.556 0 013.561 3.561 3.561 3.561 0 01-3.561 3.561H5.998a.483.483 0 01-.484-.484v-5.981zm7.719 7.442l-.026-.009a.475.475 0 01-.017-.856l.026-.017a5.941 5.941 0 003.05-5.195 5.94 5.94 0 00-3.984-5.609 5.916 5.916 0 00-1.962-.328l-9.836-.018a.483.483 0 00-.484.484v26.734c0 .268.216.484.484.484l9.689-.06a8.099 8.099 0 008.099-8.1 8.094 8.094 0 00-5.04-7.51z" fill="#999"/></svg>