<svg width="22" height="20" fill="none" xmlns="http://www.w3.org/2000/svg"><path d="M1.885 13.151l.728-.18-.728.18zm0-6.302l.728.18-.728-.18zm18.23 0l.728-.181-.728.18zm0 6.302l-.728-.18.728.18zm-6 5.508l-.162-.732.163.732zm-6.23 0l.162-.732-.163.732zm0-17.318l.162.732-.163-.732zm6.23 0l.163-.732-.162.732zM7.432 18.558l-.163.733.163-.733zm7.138 0l.163.733-.163-.733zm0-17.116l-.162.732.162-.732zm-7.138 0L7.268.709l.163.733zm.156 6.298a.75.75 0 10-.872 1.22l.872-1.22zm2.135 2.447l.436-.61-.436.61zm2.556 0l.436.61-.436-.61zm3.007-1.227a.75.75 0 00-.872-1.22l.872 1.22zM7.593 2.174l.454-.1L7.722.608l-.454.1.325 1.465zm6.36-.1l.454.1.325-1.465-.454-.1-.325 1.464zm.454 15.752l-.454.1.325 1.465.454-.1-.325-1.465zm-6.36.1l-.454-.1-.325 1.465.454.1.325-1.464zm-5.434-4.955a12.326 12.326 0 010-5.942l-1.456-.361a13.826 13.826 0 000 6.664l1.456-.362zm16.774-5.942c.484 1.951.484 3.99 0 5.941l1.456.362a13.827 13.827 0 000-6.664l-1.456.361zm-5.434 10.898a13.65 13.65 0 01-5.906 0l-.325 1.464c2.16.479 4.397.479 6.556 0l-.325-1.464zM8.047 2.073a13.651 13.651 0 015.906 0L14.278.61a15.151 15.151 0 00-6.556 0l.325 1.464zm-.454 15.753a6.603 6.603 0 01-4.98-4.856l-1.456.362a8.103 8.103 0 006.111 5.959l.325-1.465zm7.139 1.465a8.103 8.103 0 006.11-5.959l-1.455-.362a6.603 6.603 0 01-4.98 4.856l.325 1.465zm-.325-17.117a6.603 6.603 0 014.98 4.855l1.456-.361A8.103 8.103 0 0014.732.709l-.325 1.465zM7.268.709a8.103 8.103 0 00-6.11 5.959l1.455.361a6.603 6.603 0 014.98-4.855L7.268.709zM6.715 8.96l2.57 1.837.873-1.22-2.57-1.837-.873 1.22zm6 1.837l2.57-1.837-.872-1.22-2.57 1.836.871 1.22zm-3.43 0a2.95 2.95 0 003.43 0l-.873-1.22a1.45 1.45 0 01-1.684 0l-.872 1.22z" fill="#9BD100"/></svg>