<svg width="126" height="65" fill="none" xmlns="http://www.w3.org/2000/svg"><path fill-rule="evenodd" clip-rule="evenodd" d="M51.742 17.293c-.974 5.156-5.541 9.058-11.027 9.058-6.197 0-11.22-4.977-11.22-11.117 0-6.14 5.023-11.117 11.22-11.117 5.486 0 10.053 3.903 11.027 9.059h4.208C54.936 5.736 48.501 0 40.714 0 32.224 0 25.34 6.82 25.34 15.234S32.223 30.47 40.715 30.47c7.786 0 14.22-5.736 15.235-13.176h-4.208zm23.045 9.058c6.169 0 11.17-4.977 11.17-11.117 0-6.14-5.001-11.117-11.17-11.117-6.168 0-11.168 4.978-11.168 11.117 0 6.14 5 11.117 11.168 11.117zm0 4.118c8.453 0 15.306-6.82 15.306-15.235C90.093 6.821 83.24 0 74.787 0c-8.452 0-15.305 6.82-15.305 15.234S66.335 30.47 74.787 30.47zM21.688 0H0v3.984h21.688V0zm0 26.484H0v3.985h21.688v-3.985zm0-13.593H0v3.984h21.688v-3.984z" fill="#9BD100"/><g clip-path="url(#clip0)"><path d="M121.882 0h-1.396l-.598 1.386-.243.563-.754 1.723-.243.572-.754 1.723-.242.572-.746 1.723-.251.572-.746 1.723-.251.563-.746 1.733-.242.563-.754 1.732-.243.563-.754 1.732-.243.563-.754 1.732-.243.563-.754 1.732-.243.563-.745 1.724-.252-.096-.745-1.723-.251-.563-.746-1.715-.243-.563-.754-1.724-.242-.562-.755-1.724-.242-.563-.754-1.723-.243-.563-.746-1.724-.251-.563-.746-1.723-.251-.563-.745-1.715-.243-.563-.754-1.724-.243-.562-.754-1.724-.243-.563L99.136 0h-5.513v30.469h4.655V8.704h.173l.286.667.243.572.754 1.75.243.57.754 1.742.243.571.754 1.75.243.571.745 1.741.251.572.746 1.75.251.57.746 1.742.243.571.754 1.75.242.571.755 1.741.242.572.754 1.75v.242h4.222v-.243l.754-1.75.243-.57.754-1.742.243-.571.754-1.75.242-.571.746-1.741.251-.572.746-1.75.251-.57.746-1.742.242-.571.754-1.75.243-.572.754-1.74.243-.572.754-1.75.243-.571.286-.667h.173V30.47h4.655V0h-4.117z" fill="#9BD100"/></g><path d="M30.222 64.004V49.519h-3.144v-3.445h3.144v-2.636c0-1.594.447-2.836 1.342-3.727.918-.914 2.178-1.371 3.779-1.371h4.803v3.445h-4.061c-.566 0-1.013.176-1.343.528-.306.328-.459.761-.459 1.3v2.461h5.122v3.446h-5.122v14.484h-4.061zm19.922.422c-1.742 0-3.261-.34-4.556-1.02-1.295-.703-2.296-1.664-3.002-2.883-.706-1.218-1.06-2.59-1.06-4.113V46.074h4.062v10.301c0 .914.2 1.723.6 2.426.424.68.978 1.218 1.66 1.617a4.821 4.821 0 002.296.563c.824 0 1.578-.188 2.26-.563a4.757 4.757 0 001.66-1.617c.425-.703.636-1.512.636-2.426v-10.3h4.062V56.41c0 1.524-.365 2.895-1.095 4.113-.706 1.22-1.707 2.18-3.002 2.883-1.271.68-2.778 1.02-4.52 1.02zm19.001-.422c-1.624 0-2.884-.457-3.779-1.371-.895-.914-1.342-2.156-1.342-3.727V49.52h-3.108v-3.446h3.108v-4.5h4.026v4.5h5.616v3.446H68.05v9.21c0 .54.153.985.46 1.336.33.328.776.493 1.342.493h3.779v3.445h-4.486zm16.251.422c-1.742 0-3.261-.34-4.556-1.02-1.295-.703-2.296-1.664-3.002-2.883-.707-1.218-1.06-2.59-1.06-4.113V46.074h4.062v10.301c0 .914.2 1.723.6 2.426.424.68.977 1.218 1.66 1.617a4.82 4.82 0 002.296.563c.824 0 1.578-.188 2.26-.563a4.756 4.756 0 001.66-1.617c.424-.703.636-1.512.636-2.426v-10.3h4.062V56.41c0 1.524-.365 2.895-1.095 4.113-.706 1.22-1.707 2.18-3.002 2.883-1.272.68-2.779 1.02-4.521 1.02zm12.644-.422V51.172c0-1.594.447-2.836 1.342-3.727.918-.914 2.178-1.37 3.779-1.37h4.344v3.444h-3.602c-.565 0-1.013.176-1.343.528-.306.328-.459.762-.459 1.3v12.657H98.04zm20.688 0c-2.025 0-3.803-.375-5.333-1.125-1.507-.773-2.685-1.828-3.532-3.164-.848-1.36-1.272-2.918-1.272-4.676 0-1.852.377-3.48 1.13-4.887.754-1.406 1.79-2.508 3.109-3.304 1.318-.797 2.837-1.196 4.556-1.196 1.931 0 3.52.41 4.768 1.23a7.285 7.285 0 012.755 3.306c.612 1.382.918 2.93.918 4.64 0 .563-.047 1.066-.141 1.512H112.9c.212 1.383.86 2.437 1.943 3.164 1.083.703 2.378 1.055 3.885 1.055h4.839v3.445h-4.839zm-5.863-10.406h8.9a5.868 5.868 0 00-.494-2.18 3.993 3.993 0 00-1.413-1.758c-.612-.445-1.436-.668-2.472-.668-.942 0-1.743.235-2.402.703a4.572 4.572 0 00-1.483 1.723 6.087 6.087 0 00-.636 2.18z" fill="#444"/><defs><clipPath id="clip0"><path fill="#fff" transform="translate(93.623)" d="M0 0h32.376v30.469H0z"/></clipPath></defs></svg>