<svg width="24" height="14" fill="none" xmlns="http://www.w3.org/2000/svg"><path d="M23.873 12.52a1.657 1.657 0 00-.082-.156c-.416-.75-1.212-1.671-2.386-2.762l-.025-.025-.012-.013-.013-.012h-.013c-.533-.508-.87-.85-1.012-1.025-.258-.333-.316-.67-.175-1.012.1-.258.475-.804 1.125-1.637.341-.442.612-.795.812-1.062 1.441-1.916 2.066-3.14 1.874-3.674l-.074-.124c-.05-.075-.18-.144-.387-.207-.209-.062-.475-.072-.8-.03l-3.599.024a.467.467 0 00-.25.006l-.163.038-.062.031-.05.038a.556.556 0 00-.137.13.86.86 0 00-.125.22 20.41 20.41 0 01-1.337 2.811 26.57 26.57 0 01-.85 1.343c-.258.38-.475.659-.65.837-.175.18-.333.323-.475.432-.141.108-.25.154-.324.137a9.083 9.083 0 01-.213-.05.83.83 0 01-.281-.306 1.37 1.37 0 01-.144-.488 5.39 5.39 0 01-.043-.506 9.935 9.935 0 01.006-.6c.009-.258.012-.433.012-.524 0-.317.007-.66.019-1.031l.031-.881c.009-.217.013-.446.013-.687 0-.242-.015-.431-.044-.569a1.949 1.949 0 00-.13-.4.674.674 0 00-.257-.3 1.443 1.443 0 00-.419-.169c-.441-.1-1.004-.153-1.687-.162-1.55-.017-2.545.084-2.986.3a1.683 1.683 0 00-.475.375c-.15.183-.171.283-.063.3.5.075.854.254 1.062.537l.075.15c.059.108.117.3.175.575a5.8 5.8 0 01.113.912 9.726 9.726 0 010 1.562c-.042.433-.081.77-.119 1.012a2.027 2.027 0 01-.169.587c-.075.15-.125.242-.15.275a.215.215 0 01-.062.063.936.936 0 01-.337.062c-.117 0-.259-.058-.425-.175a2.998 2.998 0 01-.519-.48 6.431 6.431 0 01-.606-.857c-.225-.366-.458-.8-.7-1.3l-.2-.362a31.154 31.154 0 01-.512-1.018 19.632 19.632 0 01-.575-1.294.824.824 0 00-.3-.4L4.712.943a.855.855 0 00-.2-.106 1.326 1.326 0 00-.287-.081L.8.779c-.35 0-.587.08-.712.238l-.05.075a.404.404 0 00-.038.2c0 .092.025.204.075.337a41.242 41.242 0 001.63 3.4c.588 1.09 1.098 1.97 1.531 2.636A31.13 31.13 0 004.561 9.55c.45.592.748.971.893 1.137a7.6 7.6 0 00.344.375l.312.3c.2.2.494.44.881.719.388.279.817.554 1.287.825.471.27 1.019.491 1.644.662.624.17 1.233.24 1.824.206h1.437c.292-.025.512-.117.662-.275l.05-.063a.83.83 0 00.094-.23c.03-.105.044-.22.044-.344a4.12 4.12 0 01.08-.968c.063-.288.134-.504.213-.65a1.598 1.598 0 01.482-.55.797.797 0 01.1-.043c.2-.067.434-.003.706.193.27.196.524.438.762.725.237.288.522.61.856.968.333.359.625.625.874.8l.25.15c.167.1.384.192.65.275.266.083.5.104.7.063l3.199-.05c.316 0 .562-.053.737-.157.175-.104.279-.219.312-.343a.97.97 0 00.007-.425 1.574 1.574 0 00-.088-.331z" fill="#fff"/></svg>