<svg width="47" height="40" fill="none" xmlns="http://www.w3.org/2000/svg"><path fill-rule="evenodd" clip-rule="evenodd" d="M4.471.002h38.012a1.02 1.02 0 011.02.693l3.428 10.281c.009.101.007.203-.007.304l-.006.047v10.4a1.02 1.02 0 01-1.02 1.02h-2.431V40H17.272V22.747H5.51V40H3.47V22.747H1.038a1.02 1.02 0 01-1.02-1.02v-10.4l-.007-.047a1.348 1.348 0 01-.006-.304L3.433.694a1.02 1.02 0 011.02-.693l.018.001zM19.312 37.96h22.114V22.747H19.312v15.212zm17.254-17.253h8.311v-9.17l-3.164-9.493H5.223L2.06 11.536v9.17h8.312v-6.901h2.04v6.901h10.037v-6.901h2.04v6.901h10.037v-6.901h2.04v6.901z" fill="#000"/></svg>