<svg width="48" height="48" fill="none" xmlns="http://www.w3.org/2000/svg"><path fill-rule="evenodd" clip-rule="evenodd" d="M37.395 32.66h2.104v6.84h-2.105v-6.84zm-6.315-7.894h2.105v14.733H31.08V24.766zM16.348 39.5A7.376 7.376 0 019 32.66h2.112a5.263 5.263 0 105.761-5.762v-2.113a7.366 7.366 0 01-.525 14.715z" fill="#000"/><path fill-rule="evenodd" clip-rule="evenodd" d="M46.287 4.287c.503.503.786 1.185.787 1.897v38.632a2.687 2.687 0 01-2.683 2.684H5.758a2.687 2.687 0 01-2.684-2.683V6.183A2.686 2.686 0 015.757 3.5h38.634c.711 0 1.393.284 1.896.787zm-24.969 13.7h23.61V5.648h-23.61v12.34zm-2.146 0V5.648H5.22v12.34h13.95zM5.22 20.135v25.22h39.71l-.002-25.22H5.221z" fill="#000"/></svg>