<svg width="37" height="48" fill="none" xmlns="http://www.w3.org/2000/svg"><path d="M18.463 44.658a21.26 21.26 0 002.739-.19l.182-.024.083-.164a11.622 11.622 0 00-.49-11.367l-.337-.545-.276.578a30.108 30.108 0 01-7.968 10.218l-.496.41.614.193a19.39 19.39 0 005.949.89zm0 0l-.002-.35m.002.35h.001l-.002-.35m0 0a19.065 19.065 0 01-5.442-.754l-.178.149-.223-.27.105-.334c.071.023.143.045.214.066a30.46 30.46 0 007.56-9.693 10.607 10.607 0 00-.116-.19l.298-.185.316.151-.101.21a11.27 11.27 0 01.26 10.664c-.893.12-1.793.182-2.694.186zm15.982-20.23l.004.01.005.009a20.653 20.653 0 012.12 9.133v0c0 6.87-6.858 14.42-18.111 14.42C7.212 47.65.355 40.105.35 33.238c.112-2.746.773-5.44 1.944-7.927a18.118 18.118 0 001.748-6.83v-7.054h1.493a8.775 8.775 0 018.079 5.835l.31.872.344-.86c1.437-3.58.853-7.137-.104-9.818-.957-2.684-2.3-4.528-2.438-4.713l-.001-.002L9.93.35h2.992c2.178 0 5.332.66 7.931 2.56 2.522 1.844 4.545 4.868 4.639 9.663h-2.966a8.632 8.632 0 00-5.895-8.546l-.765-.255.336.733c2.29 4.994 3.445 12.42-2.168 18.65l-2.608 2.894v-3.895c0-2.338-.533-3.987-1.3-5.145a5.698 5.698 0 00-2.609-2.154l-.483-.2v3.799a20.573 20.573 0 01-1.944 7.927 18.117 18.117 0 00-1.748 6.83l-.001.023.001.023a11.139 11.139 0 005.289 8.654l.182.111.182-.11c2.44-1.48 6.52-4.992 9.937-12.963h0l.87-2.03 1.56 1.56a15.38 15.38 0 013.795 14.437l-.16.627.612-.21a11.87 11.87 0 007.97-10.068v-.034a17.67 17.67 0 00-1.897-8l-.006-.013c-.526-1.25-1.118-2.657-1.712-4.437-1.047-3.143-.123-6.214 1.13-8.565a19.016 19.016 0 012.683-3.79l2.119 2.12a16.593 16.593 0 00-2.006 2.789c-1.003 1.771-1.864 4.17-1.087 6.5.561 1.682 1.136 3.046 1.638 4.238l.002.005z" fill="#000" stroke="#fff" stroke-width=".7"/></svg>