<svg width="49" height="50" fill="none" xmlns="http://www.w3.org/2000/svg"><path fill-rule="evenodd" clip-rule="evenodd" d="M24.836 40.493h-6.96v6.96h-2.119v-6.96H9.86a2.804 2.804 0 01-2.8-2.8v-5.898H.099v-2.12h6.96V17.877H.099v-2.12h6.96V9.86a2.804 2.804 0 012.8-2.8h5.898V.099h2.12v6.96h11.798V.099h2.12v6.96h5.899a2.803 2.803 0 012.8 2.8v5.898h6.958v2.12h-6.959v6.959h-2.118l-.001-15.658H9.178v29.196h15.658v2.12z" fill="#000"/><path fill-rule="evenodd" clip-rule="evenodd" d="M42.653 36.534a7.279 7.279 0 11-14.557 0 7.279 7.279 0 0114.557 0zm-1.463 7.23a9.24 9.24 0 01-5.816 2.049 9.279 9.279 0 119.279-9.279 9.24 9.24 0 01-2.049 5.816l6.236 6.235L47.425 50l-6.235-6.236zM17.658 17.656h12.238v6.119h2v-8.119H15.658v16.238h8.119v-2h-6.119V17.656z" fill="#000"/></svg>