<svg width="74" height="48" fill="none" xmlns="http://www.w3.org/2000/svg"><mask id="a" fill="#fff"><path d="M53.854 13.792c-1.896 0-4.83-2.156-7.92-2.08-4.08.054-7.82 2.366-9.922 6.028-4.234 7.35-1.092 18.206 3.038 24.18 2.026 2.908 4.416 6.18 7.584 6.078 3.04-.13 4.18-1.974 7.87-1.974 3.662 0 4.7 1.974 7.92 1.896 3.274-.052 5.352-2.96 7.352-5.896 2.312-3.376 3.272-6.65 3.324-6.83-.078-.026-6.364-2.442-6.44-9.714-.052-6.08 4.96-8.988 5.194-9.118-2.858-4.18-7.246-4.648-8.78-4.752-4-.312-7.35 2.18-9.22 2.18v.002zM60.61 7.66c1.686-2.024 2.8-4.854 2.49-7.66-2.414.104-5.324 1.61-7.064 3.636-1.56 1.792-2.908 4.676-2.546 7.428 2.676.208 5.43-1.376 7.118-3.402"/></mask><path d="M53.854 13.792v2h2v-2h-2zm-7.92-2.08l.027 2h.022l-.049-2zm-9.922 6.028l1.733.998.002-.002-1.735-.996zm3.038 24.18l-1.645 1.137.004.006 1.641-1.143zm7.584 6.078l.064 1.999h.022l-.085-1.999zm15.79-.078l-.032-2h-.016l.048 2zm7.352-5.896l-1.65-1.13-.003.004 1.653 1.126zm3.324-6.83l1.922.555.532-1.845-1.822-.607-.632 1.897zm-6.44-9.714l-2 .017v.004l2-.021zm5.194-9.118l.971 1.748 1.919-1.065-1.239-1.812-1.651 1.129zm-8.78-4.752l-.155 1.994h.01l.01.001.135-1.995zm-9.22 2.18v-2h-2v2h2zM63.1 0l1.988-.22-.206-1.859-1.868.08L63.1 0zm-7.064 3.636l1.508 1.313.01-.01-1.518-1.303zm-2.546 7.428l-1.983.26.212 1.608 1.616.126.155-1.994zm.364.728c-.136 0-.422-.046-.958-.229-.535-.182-1.086-.414-1.827-.703-1.362-.531-3.2-1.196-5.184-1.147l.098 3.998c1.107-.027 2.28.348 3.632.876.616.24 1.346.543 1.991.763.644.219 1.436.442 2.248.442v-4zm-7.946-2.08c-4.837.064-9.202 2.802-11.63 7.032l3.469 1.992c1.775-3.094 4.89-4.98 8.214-5.024l-.053-4zm-11.629 7.03c-2.434 4.226-2.674 9.305-1.854 13.951.822 4.662 2.75 9.14 4.98 12.364l3.29-2.274c-1.9-2.75-3.608-6.687-4.33-10.784-.726-4.113-.42-8.136 1.38-11.26l-3.466-1.997zm3.13 26.321c1 1.435 2.215 3.15 3.637 4.484 1.428 1.338 3.31 2.525 5.652 2.45l-.128-3.998c-.827.027-1.723-.371-2.788-1.37-1.071-1.004-2.064-2.379-3.091-3.852l-3.282 2.286zm9.31 6.933c1.943-.083 3.322-.741 4.387-1.192 1.031-.438 1.948-.78 3.398-.78v-4c-2.24 0-3.738.58-4.96 1.097-1.187.503-1.898.832-2.995.879l.17 3.996zm7.785-1.972c1.406 0 2.27.354 3.333.813 1.122.485 2.546 1.133 4.635 1.082l-.096-3.998c-1.13.027-1.837-.273-2.953-.756-1.177-.508-2.663-1.141-4.919-1.141v4zm7.952 1.896c2.29-.037 4.08-1.091 5.487-2.405 1.367-1.276 2.504-2.923 3.486-4.365l-3.306-2.252c-1.017 1.494-1.92 2.769-2.91 3.694-.95.887-1.837 1.313-2.82 1.328l.063 4zm8.97-6.766c2.486-3.63 3.518-7.136 3.596-7.405l-3.843-1.11c-.027.091-.915 3.133-3.053 6.255l3.3 2.26zm2.306-9.857c.18.06-1.137-.417-2.473-1.69-1.284-1.225-2.568-3.158-2.6-6.148l-3.999.042c.045 4.282 1.942 7.193 3.84 9.001 1.845 1.76 3.71 2.504 3.968 2.59l1.264-3.795zm-5.072-7.834c-.02-2.443.964-4.241 2.015-5.48 1.069-1.26 2.162-1.88 2.15-1.873l-1.942-3.496c-.329.182-6.285 3.608-6.223 10.883l4-.034zm4.845-10.23c-3.406-4.981-8.63-5.506-10.296-5.618l-.27 3.99c1.402.095 4.954.507 7.264 3.886l3.302-2.258zM63.23 9.616c-2.445-.19-4.617.481-6.261 1.092-.96.357-1.43.567-2.122.814-.624.224-.9.268-.993.268v4c.842 0 1.686-.267 2.34-.501.588-.21 1.557-.604 2.168-.831 1.498-.557 3.001-.975 4.556-.854l.312-3.988zM51.854 13.79v.002h4v-.002h-4zm10.293-4.85c1.959-2.352 3.322-5.707 2.94-9.16l-3.975.44c.239 2.159-.626 4.464-2.039 6.16l3.074 2.56zm.867-10.938c-3.034.13-6.441 1.94-8.495 4.33l3.034 2.607c1.426-1.66 3.84-2.864 5.633-2.94l-.172-3.997zm-8.486 4.32c-1.796 2.063-3.482 5.5-3.02 9.003l3.965-.522c-.263-2 .747-4.332 2.072-5.854l-3.017-2.626zm-1.193 10.736c3.513.273 6.847-1.76 8.81-4.116l-3.074-2.56c-1.413 1.696-3.587 2.83-5.426 2.688l-.31 3.988z" fill="#000" mask="url(#a)"/><path fill-rule="evenodd" clip-rule="evenodd" d="M8.955 18.205c0 2.206 1.791 4 3.999 4a4.001 4.001 0 003.999-4 4 4 0 00-3.999-3.998 4 4 0 00-3.999 3.998zm3.999 2a2.001 2.001 0 01-1.999-2 2 2 0 011.999-1.998 2 2 0 011.999 1.998c0 1.102-.897 2-1.999 2z" fill="#000"/><path fill-rule="evenodd" clip-rule="evenodd" d="M12.237 8.165L8.242 1.246a.832.832 0 011.44-.831l4.045 7.006.31-.139A24.468 24.468 0 0122 5.301a25.832 25.832 0 012-.078v21.82h-2V27H2v.044H0a24.678 24.678 0 01.25-2c1.155-6.914 5.2-12.762 10.942-16.276a23.635 23.635 0 011.045-.603zm.956 1.757l.665-.362.699-.32A22.423 22.423 0 0122 7.308v17.737H2.28C3.48 18.474 7.53 13 13.193 9.922z" fill="#000"/><path d="M2 28H0v20h24V28h-2v18H2V28z" fill="#000"/><path d="M0 27h2v7H0v-7zm22-1h2v7h-2v-7z" fill="#000"/></svg>